<mxfile host="app.diagrams.net" modified="2024-01-28T14:00:04.458Z" agent="Mozilla/5.0 (Windows NT 10.0; Win64; x64) AppleWebKit/537.36 (KHTML, like Gecko) Chrome/120.0.0.0 Safari/537.36" version="23.0.2" etag="vxQMYwDQbvqi7vOjym-m" type="device">
  <diagram id="e9H5swpTP4I2v3cZtMX6" name="第 1 页">
    <mxGraphModel dx="911" dy="586" grid="1" gridSize="10" guides="1" tooltips="1" connect="1" arrows="1" fold="1" page="1" pageScale="1" pageWidth="827" pageHeight="1169" math="0" shadow="0">
      <root>
        <mxCell id="0" />
        <mxCell id="1" parent="0" />
        <mxCell id="UQc12cLVhQ0fAhJ0bAbh-3" value="&lt;font style=&quot;font-size: 20px;&quot; face=&quot;Times New Roman&quot;&gt;A&lt;sub&gt;1&lt;/sub&gt;B&lt;sub&gt;1&lt;/sub&gt;A&lt;sub&gt;2&lt;/sub&gt;B&lt;sub&gt;2&lt;/sub&gt;A&lt;sub&gt;3&lt;/sub&gt;B&lt;/font&gt;&lt;font style=&quot;font-size: 16.6667px;&quot; face=&quot;Times New Roman&quot;&gt;&lt;sub&gt;3&lt;/sub&gt;&lt;/font&gt;" style="text;html=1;align=center;verticalAlign=middle;resizable=0;points=[];autosize=1;strokeColor=none;fillColor=none;" vertex="1" parent="1">
          <mxGeometry x="440" y="40" width="160" height="40" as="geometry" />
        </mxCell>
        <mxCell id="UQc12cLVhQ0fAhJ0bAbh-6" value="&lt;font style=&quot;font-size: 20px;&quot; face=&quot;Times New Roman&quot;&gt;A&lt;sub&gt;1&lt;/sub&gt;B&lt;sub&gt;1&lt;/sub&gt;A&lt;sub&gt;2&lt;/sub&gt;A&lt;sub&gt;3&lt;/sub&gt;B&lt;sub&gt;3&lt;/sub&gt;B&lt;/font&gt;&lt;font style=&quot;font-size: 16.6667px;&quot; face=&quot;Times New Roman&quot;&gt;&lt;sub&gt;2&lt;/sub&gt;&lt;/font&gt;" style="text;html=1;align=center;verticalAlign=middle;resizable=0;points=[];autosize=1;strokeColor=none;fillColor=none;" vertex="1" parent="1">
          <mxGeometry x="440" y="70" width="160" height="40" as="geometry" />
        </mxCell>
        <mxCell id="UQc12cLVhQ0fAhJ0bAbh-7" value="&lt;font style=&quot;font-size: 20px;&quot; face=&quot;Times New Roman&quot;&gt;A&lt;sub&gt;1&lt;/sub&gt;B&lt;sub&gt;1&lt;/sub&gt;A&lt;sub&gt;2&lt;/sub&gt;A&lt;sub&gt;3&lt;/sub&gt;B&lt;/font&gt;&lt;font style=&quot;font-size: 16.6667px;&quot; face=&quot;Times New Roman&quot;&gt;&lt;sub&gt;2&lt;/sub&gt;&lt;/font&gt;&lt;font style=&quot;&quot; face=&quot;Times New Roman&quot;&gt;&lt;span style=&quot;font-size: 20px;&quot;&gt;B&lt;sub&gt;3&lt;/sub&gt;&lt;/span&gt;&lt;/font&gt;" style="text;html=1;align=center;verticalAlign=middle;resizable=0;points=[];autosize=1;strokeColor=none;fillColor=none;" vertex="1" parent="1">
          <mxGeometry x="440" y="100" width="160" height="40" as="geometry" />
        </mxCell>
        <mxCell id="UQc12cLVhQ0fAhJ0bAbh-8" value="&lt;font style=&quot;font-size: 20px;&quot; face=&quot;Times New Roman&quot;&gt;A&lt;sub&gt;1&lt;/sub&gt;A&lt;sub&gt;2&lt;/sub&gt;B&lt;/font&gt;&lt;font style=&quot;font-size: 16.6667px;&quot; face=&quot;Times New Roman&quot;&gt;&lt;sub&gt;2&lt;/sub&gt;&lt;/font&gt;&lt;font style=&quot;&quot; face=&quot;Times New Roman&quot;&gt;&lt;span style=&quot;font-size: 20px;&quot;&gt;B&lt;sub&gt;1&lt;/sub&gt;A&lt;sub&gt;3&lt;/sub&gt;B&lt;sub&gt;3&lt;/sub&gt;&lt;/span&gt;&lt;/font&gt;" style="text;html=1;align=center;verticalAlign=middle;resizable=0;points=[];autosize=1;strokeColor=none;fillColor=none;" vertex="1" parent="1">
          <mxGeometry x="440" y="130" width="160" height="40" as="geometry" />
        </mxCell>
        <mxCell id="UQc12cLVhQ0fAhJ0bAbh-9" value="&lt;font style=&quot;font-size: 20px;&quot; face=&quot;Times New Roman&quot;&gt;A&lt;sub&gt;1&lt;/sub&gt;A&lt;sub&gt;2&lt;/sub&gt;B&lt;sub&gt;1&lt;/sub&gt;&lt;/font&gt;&lt;font style=&quot;&quot; face=&quot;Times New Roman&quot;&gt;&lt;span style=&quot;font-size: 20px;&quot;&gt;B&lt;/span&gt;&lt;span style=&quot;font-size: 16.6667px;&quot;&gt;&lt;sub&gt;2&lt;/sub&gt;&lt;/span&gt;&lt;span style=&quot;font-size: 20px;&quot;&gt;A&lt;/span&gt;&lt;span style=&quot;font-size: 16.6667px;&quot;&gt;&lt;sub&gt;3&lt;/sub&gt;&lt;/span&gt;&lt;span style=&quot;font-size: 20px;&quot;&gt;B&lt;sub&gt;3&lt;/sub&gt;&lt;/span&gt;&lt;/font&gt;" style="text;html=1;align=center;verticalAlign=middle;resizable=0;points=[];autosize=1;strokeColor=none;fillColor=none;" vertex="1" parent="1">
          <mxGeometry x="445" y="160" width="150" height="40" as="geometry" />
        </mxCell>
        <mxCell id="UQc12cLVhQ0fAhJ0bAbh-10" value="&lt;font style=&quot;font-size: 20px;&quot; face=&quot;Times New Roman&quot;&gt;A&lt;sub&gt;1&lt;/sub&gt;A&lt;sub&gt;2&lt;/sub&gt;B&lt;sub&gt;1&lt;/sub&gt;&lt;/font&gt;&lt;font style=&quot;&quot; face=&quot;Times New Roman&quot;&gt;&lt;span style=&quot;font-size: 20px;&quot;&gt;A&lt;sub&gt;3&lt;/sub&gt;B&lt;sub&gt;3&lt;/sub&gt;&lt;/span&gt;&lt;span style=&quot;font-size: 20px;&quot;&gt;B&lt;/span&gt;&lt;span style=&quot;font-size: 16.6667px;&quot;&gt;&lt;sub&gt;2&lt;/sub&gt;&lt;/span&gt;&lt;/font&gt;" style="text;html=1;align=center;verticalAlign=middle;resizable=0;points=[];autosize=1;strokeColor=none;fillColor=none;" vertex="1" parent="1">
          <mxGeometry x="440" y="190" width="160" height="40" as="geometry" />
        </mxCell>
        <mxCell id="UQc12cLVhQ0fAhJ0bAbh-11" value="&lt;font style=&quot;font-size: 20px;&quot; face=&quot;Times New Roman&quot;&gt;A&lt;sub&gt;1&lt;/sub&gt;A&lt;sub&gt;2&lt;/sub&gt;B&lt;sub&gt;1&lt;/sub&gt;&lt;/font&gt;&lt;font style=&quot;&quot; face=&quot;Times New Roman&quot;&gt;&lt;span style=&quot;font-size: 20px;&quot;&gt;A&lt;sub&gt;3&lt;/sub&gt;B&lt;/span&gt;&lt;span style=&quot;font-size: 16.6667px;&quot;&gt;&lt;sub&gt;2&lt;/sub&gt;&lt;/span&gt;&lt;span style=&quot;font-size: 20px;&quot;&gt;B&lt;sub&gt;3&lt;/sub&gt;&lt;/span&gt;&lt;/font&gt;" style="text;html=1;align=center;verticalAlign=middle;resizable=0;points=[];autosize=1;strokeColor=none;fillColor=none;" vertex="1" parent="1">
          <mxGeometry x="440" y="220" width="160" height="40" as="geometry" />
        </mxCell>
        <mxCell id="UQc12cLVhQ0fAhJ0bAbh-12" value="&lt;font style=&quot;font-size: 20px;&quot; face=&quot;Times New Roman&quot;&gt;A&lt;sub&gt;1&lt;/sub&gt;A&lt;sub&gt;2&lt;/sub&gt;&lt;/font&gt;&lt;font style=&quot;&quot; face=&quot;Times New Roman&quot;&gt;&lt;span style=&quot;font-size: 20px;&quot;&gt;A&lt;sub&gt;3&lt;/sub&gt;&lt;/span&gt;&lt;span style=&quot;font-size: 20px;&quot;&gt;B&lt;sub&gt;3&lt;/sub&gt;B&lt;sub&gt;2&lt;/sub&gt;&lt;/span&gt;&lt;span style=&quot;font-size: 20px;&quot;&gt;B&lt;sub&gt;1&lt;/sub&gt;&lt;/span&gt;&lt;/font&gt;" style="text;html=1;align=center;verticalAlign=middle;resizable=0;points=[];autosize=1;strokeColor=none;fillColor=none;" vertex="1" parent="1">
          <mxGeometry x="440" y="250" width="160" height="40" as="geometry" />
        </mxCell>
        <mxCell id="UQc12cLVhQ0fAhJ0bAbh-13" value="&lt;font style=&quot;font-size: 20px;&quot; face=&quot;Times New Roman&quot;&gt;A&lt;sub&gt;1&lt;/sub&gt;A&lt;sub&gt;2&lt;/sub&gt;&lt;/font&gt;&lt;font style=&quot;&quot; face=&quot;Times New Roman&quot;&gt;&lt;span style=&quot;font-size: 20px;&quot;&gt;A&lt;sub&gt;3&lt;/sub&gt;&lt;/span&gt;&lt;span style=&quot;font-size: 20px;&quot;&gt;B&lt;/span&gt;&lt;span style=&quot;font-size: 16.6667px;&quot;&gt;&lt;sub&gt;2&lt;/sub&gt;&lt;/span&gt;&lt;span style=&quot;font-size: 20px;&quot;&gt;B&lt;sub&gt;3&lt;/sub&gt;&lt;/span&gt;&lt;span style=&quot;font-size: 20px;&quot;&gt;B&lt;sub&gt;1&lt;/sub&gt;&lt;/span&gt;&lt;/font&gt;" style="text;html=1;align=center;verticalAlign=middle;resizable=0;points=[];autosize=1;strokeColor=none;fillColor=none;" vertex="1" parent="1">
          <mxGeometry x="440" y="280" width="160" height="40" as="geometry" />
        </mxCell>
        <mxCell id="UQc12cLVhQ0fAhJ0bAbh-14" value="&lt;font style=&quot;font-size: 20px;&quot; face=&quot;Times New Roman&quot;&gt;A&lt;sub&gt;1&lt;/sub&gt;A&lt;sub&gt;2&lt;/sub&gt;&lt;/font&gt;&lt;font style=&quot;&quot; face=&quot;Times New Roman&quot;&gt;&lt;span style=&quot;font-size: 20px;&quot;&gt;A&lt;sub&gt;3&lt;/sub&gt;&lt;/span&gt;&lt;span style=&quot;font-size: 20px;&quot;&gt;B&lt;/span&gt;&lt;span style=&quot;font-size: 16.6667px;&quot;&gt;&lt;sub&gt;2&lt;/sub&gt;&lt;/span&gt;&lt;span style=&quot;font-size: 20px;&quot;&gt;B&lt;/span&gt;&lt;span style=&quot;font-size: 16.6667px;&quot;&gt;&lt;sub&gt;1&lt;/sub&gt;&lt;/span&gt;&lt;span style=&quot;font-size: 20px;&quot;&gt;B&lt;sub&gt;3&lt;/sub&gt;&lt;/span&gt;&lt;/font&gt;" style="text;html=1;align=center;verticalAlign=middle;resizable=0;points=[];autosize=1;strokeColor=none;fillColor=none;" vertex="1" parent="1">
          <mxGeometry x="445" y="310" width="150" height="40" as="geometry" />
        </mxCell>
        <mxCell id="UQc12cLVhQ0fAhJ0bAbh-15" value="&lt;font style=&quot;font-size: 20px;&quot; face=&quot;Times New Roman&quot;&gt;A&lt;sub&gt;1&lt;/sub&gt;A&lt;sub&gt;2&lt;/sub&gt;&lt;/font&gt;&lt;font style=&quot;&quot; face=&quot;Times New Roman&quot;&gt;&lt;span style=&quot;font-size: 20px;&quot;&gt;A&lt;sub&gt;3&lt;/sub&gt;&lt;/span&gt;&lt;span style=&quot;font-size: 20px;&quot;&gt;B&lt;sub&gt;3&lt;/sub&gt;B&lt;sub&gt;1&lt;/sub&gt;&lt;/span&gt;&lt;span style=&quot;font-size: 20px;&quot;&gt;B&lt;sub&gt;2&lt;/sub&gt;&lt;/span&gt;&lt;/font&gt;" style="text;html=1;align=center;verticalAlign=middle;resizable=0;points=[];autosize=1;strokeColor=none;fillColor=none;" vertex="1" parent="1">
          <mxGeometry x="440" y="340" width="160" height="40" as="geometry" />
        </mxCell>
        <mxCell id="UQc12cLVhQ0fAhJ0bAbh-16" value="&lt;font style=&quot;font-size: 20px;&quot; face=&quot;Times New Roman&quot;&gt;A&lt;sub&gt;1&lt;/sub&gt;A&lt;sub&gt;2&lt;/sub&gt;&lt;/font&gt;&lt;font style=&quot;&quot; face=&quot;Times New Roman&quot;&gt;&lt;span style=&quot;font-size: 20px;&quot;&gt;A&lt;sub&gt;3&lt;/sub&gt;&lt;/span&gt;&lt;span style=&quot;font-size: 20px;&quot;&gt;B&lt;sub&gt;1&lt;/sub&gt;&lt;/span&gt;&lt;span style=&quot;font-size: 20px;&quot;&gt;B&lt;sub&gt;3&lt;/sub&gt;&lt;/span&gt;&lt;span style=&quot;font-size: 20px;&quot;&gt;B&lt;sub&gt;2&lt;/sub&gt;&lt;/span&gt;&lt;/font&gt;" style="text;html=1;align=center;verticalAlign=middle;resizable=0;points=[];autosize=1;strokeColor=none;fillColor=none;" vertex="1" parent="1">
          <mxGeometry x="440" y="370" width="160" height="40" as="geometry" />
        </mxCell>
        <mxCell id="UQc12cLVhQ0fAhJ0bAbh-17" value="&lt;font style=&quot;font-size: 20px;&quot; face=&quot;Times New Roman&quot;&gt;A&lt;sub&gt;1&lt;/sub&gt;A&lt;sub&gt;2&lt;/sub&gt;&lt;/font&gt;&lt;font style=&quot;&quot; face=&quot;Times New Roman&quot;&gt;&lt;span style=&quot;font-size: 20px;&quot;&gt;A&lt;sub&gt;3&lt;/sub&gt;&lt;/span&gt;&lt;span style=&quot;font-size: 20px;&quot;&gt;B&lt;sub&gt;1&lt;/sub&gt;&lt;/span&gt;&lt;span style=&quot;font-size: 20px;&quot;&gt;B&lt;sub&gt;2&lt;/sub&gt;&lt;/span&gt;&lt;span style=&quot;font-size: 20px;&quot;&gt;B&lt;sub&gt;3&lt;/sub&gt;&lt;/span&gt;&lt;/font&gt;" style="text;html=1;align=center;verticalAlign=middle;resizable=0;points=[];autosize=1;strokeColor=none;fillColor=none;" vertex="1" parent="1">
          <mxGeometry x="440" y="400" width="160" height="40" as="geometry" />
        </mxCell>
        <mxCell id="UQc12cLVhQ0fAhJ0bAbh-18" value="&lt;font style=&quot;font-size: 20px;&quot; face=&quot;Times New Roman&quot;&gt;A&lt;sub&gt;1&lt;/sub&gt;B&lt;sub&gt;1&lt;/sub&gt;A&lt;sub&gt;2&lt;/sub&gt;B&lt;sub&gt;2&lt;/sub&gt;A&lt;sub&gt;3&lt;/sub&gt;&lt;/font&gt;" style="text;html=1;align=center;verticalAlign=middle;resizable=0;points=[];autosize=1;strokeColor=none;fillColor=none;" vertex="1" parent="1">
          <mxGeometry x="274" y="70" width="140" height="40" as="geometry" />
        </mxCell>
        <mxCell id="UQc12cLVhQ0fAhJ0bAbh-19" value="&lt;font style=&quot;font-size: 20px;&quot; face=&quot;Times New Roman&quot;&gt;A&lt;sub&gt;1&lt;/sub&gt;A&lt;sub&gt;2&lt;/sub&gt;B&lt;/font&gt;&lt;font style=&quot;font-size: 16.6667px;&quot; face=&quot;Times New Roman&quot;&gt;&lt;sub&gt;2&lt;/sub&gt;&lt;/font&gt;&lt;font style=&quot;&quot; face=&quot;Times New Roman&quot;&gt;&lt;span style=&quot;font-size: 20px;&quot;&gt;B&lt;sub&gt;1&lt;/sub&gt;A&lt;sub&gt;3&lt;/sub&gt;&lt;/span&gt;&lt;/font&gt;" style="text;html=1;align=center;verticalAlign=middle;resizable=0;points=[];autosize=1;strokeColor=none;fillColor=none;" vertex="1" parent="1">
          <mxGeometry x="279" y="170" width="130" height="40" as="geometry" />
        </mxCell>
        <mxCell id="UQc12cLVhQ0fAhJ0bAbh-20" value="&lt;font style=&quot;font-size: 20px;&quot; face=&quot;Times New Roman&quot;&gt;A&lt;sub&gt;1&lt;/sub&gt;B&lt;sub&gt;1&lt;/sub&gt;A&lt;sub&gt;2&lt;/sub&gt;A&lt;sub&gt;3&lt;/sub&gt;B&lt;/font&gt;&lt;font style=&quot;font-size: 16.6667px;&quot; face=&quot;Times New Roman&quot;&gt;&lt;sub&gt;2&lt;/sub&gt;&lt;/font&gt;" style="text;html=1;align=center;verticalAlign=middle;resizable=0;points=[];autosize=1;strokeColor=none;fillColor=none;" vertex="1" parent="1">
          <mxGeometry x="279" y="120" width="130" height="40" as="geometry" />
        </mxCell>
        <mxCell id="UQc12cLVhQ0fAhJ0bAbh-21" value="&lt;font style=&quot;font-size: 20px;&quot; face=&quot;Times New Roman&quot;&gt;A&lt;sub&gt;1&lt;/sub&gt;A&lt;sub&gt;2&lt;/sub&gt;B&lt;sub&gt;1&lt;/sub&gt;&lt;/font&gt;&lt;font style=&quot;&quot; face=&quot;Times New Roman&quot;&gt;&lt;span style=&quot;font-size: 20px;&quot;&gt;B&lt;/span&gt;&lt;span style=&quot;font-size: 16.6667px;&quot;&gt;&lt;sub&gt;2&lt;/sub&gt;&lt;/span&gt;&lt;span style=&quot;font-size: 20px;&quot;&gt;A&lt;/span&gt;&lt;span style=&quot;font-size: 16.6667px;&quot;&gt;&lt;sub&gt;3&lt;/sub&gt;&lt;/span&gt;&lt;/font&gt;" style="text;html=1;align=center;verticalAlign=middle;resizable=0;points=[];autosize=1;strokeColor=none;fillColor=none;" vertex="1" parent="1">
          <mxGeometry x="279" y="220" width="130" height="40" as="geometry" />
        </mxCell>
        <mxCell id="UQc12cLVhQ0fAhJ0bAbh-22" value="&lt;font style=&quot;font-size: 20px;&quot; face=&quot;Times New Roman&quot;&gt;A&lt;sub&gt;1&lt;/sub&gt;A&lt;sub&gt;2&lt;/sub&gt;B&lt;sub&gt;1&lt;/sub&gt;&lt;/font&gt;&lt;font style=&quot;&quot; face=&quot;Times New Roman&quot;&gt;&lt;span style=&quot;font-size: 20px;&quot;&gt;A&lt;sub&gt;3&lt;/sub&gt;B&lt;/span&gt;&lt;span style=&quot;font-size: 16.6667px;&quot;&gt;&lt;sub&gt;2&lt;/sub&gt;&lt;/span&gt;&lt;/font&gt;" style="text;html=1;align=center;verticalAlign=middle;resizable=0;points=[];autosize=1;strokeColor=none;fillColor=none;" vertex="1" parent="1">
          <mxGeometry x="279" y="270" width="130" height="40" as="geometry" />
        </mxCell>
        <mxCell id="UQc12cLVhQ0fAhJ0bAbh-23" value="&lt;font style=&quot;font-size: 20px;&quot; face=&quot;Times New Roman&quot;&gt;A&lt;sub&gt;1&lt;/sub&gt;A&lt;sub&gt;2&lt;/sub&gt;&lt;/font&gt;&lt;font style=&quot;&quot; face=&quot;Times New Roman&quot;&gt;&lt;span style=&quot;font-size: 20px;&quot;&gt;A&lt;sub&gt;3&lt;/sub&gt;&lt;/span&gt;&lt;span style=&quot;font-size: 20px;&quot;&gt;B&lt;/span&gt;&lt;span style=&quot;font-size: 16.6667px;&quot;&gt;&lt;sub&gt;2&lt;/sub&gt;&lt;/span&gt;&lt;span style=&quot;font-size: 20px;&quot;&gt;B&lt;/span&gt;&lt;span style=&quot;font-size: 16.6667px;&quot;&gt;&lt;sub&gt;1&lt;/sub&gt;&lt;/span&gt;&lt;/font&gt;" style="text;html=1;align=center;verticalAlign=middle;resizable=0;points=[];autosize=1;strokeColor=none;fillColor=none;" vertex="1" parent="1">
          <mxGeometry x="279" y="320" width="130" height="40" as="geometry" />
        </mxCell>
        <mxCell id="UQc12cLVhQ0fAhJ0bAbh-24" value="&lt;font style=&quot;font-size: 20px;&quot; face=&quot;Times New Roman&quot;&gt;A&lt;sub&gt;1&lt;/sub&gt;A&lt;sub&gt;2&lt;/sub&gt;&lt;/font&gt;&lt;font style=&quot;&quot; face=&quot;Times New Roman&quot;&gt;&lt;span style=&quot;font-size: 20px;&quot;&gt;A&lt;sub&gt;3&lt;/sub&gt;&lt;/span&gt;&lt;span style=&quot;font-size: 20px;&quot;&gt;B&lt;sub&gt;1&lt;/sub&gt;&lt;/span&gt;&lt;span style=&quot;font-size: 20px;&quot;&gt;B&lt;sub&gt;2&lt;/sub&gt;&lt;/span&gt;&lt;/font&gt;" style="text;html=1;align=center;verticalAlign=middle;resizable=0;points=[];autosize=1;strokeColor=none;fillColor=none;" vertex="1" parent="1">
          <mxGeometry x="274" y="370" width="140" height="40" as="geometry" />
        </mxCell>
        <mxCell id="UQc12cLVhQ0fAhJ0bAbh-25" value="&lt;font style=&quot;font-size: 20px;&quot; face=&quot;Times New Roman&quot;&gt;A&lt;sub&gt;1&lt;/sub&gt;B&lt;sub&gt;1&lt;/sub&gt;A&lt;sub&gt;2&lt;/sub&gt;A&lt;sub&gt;3&lt;/sub&gt;&lt;/font&gt;" style="text;html=1;align=center;verticalAlign=middle;resizable=0;points=[];autosize=1;strokeColor=none;fillColor=none;" vertex="1" parent="1">
          <mxGeometry x="140" y="140" width="110" height="40" as="geometry" />
        </mxCell>
        <mxCell id="UQc12cLVhQ0fAhJ0bAbh-26" value="&lt;font style=&quot;font-size: 20px;&quot; face=&quot;Times New Roman&quot;&gt;A&lt;sub&gt;1&lt;/sub&gt;A&lt;sub&gt;2&lt;/sub&gt;B&lt;sub&gt;1&lt;/sub&gt;&lt;/font&gt;&lt;font style=&quot;&quot; face=&quot;Times New Roman&quot;&gt;&lt;span style=&quot;font-size: 20px;&quot;&gt;A&lt;/span&gt;&lt;span style=&quot;font-size: 16.6667px;&quot;&gt;&lt;sub&gt;3&lt;/sub&gt;&lt;/span&gt;&lt;/font&gt;" style="text;html=1;align=center;verticalAlign=middle;resizable=0;points=[];autosize=1;strokeColor=none;fillColor=none;" vertex="1" parent="1">
          <mxGeometry x="140" y="220" width="110" height="40" as="geometry" />
        </mxCell>
        <mxCell id="UQc12cLVhQ0fAhJ0bAbh-27" value="&lt;font style=&quot;font-size: 20px;&quot; face=&quot;Times New Roman&quot;&gt;A&lt;sub&gt;1&lt;/sub&gt;A&lt;sub&gt;2&lt;/sub&gt;&lt;/font&gt;&lt;font style=&quot;&quot; face=&quot;Times New Roman&quot;&gt;&lt;span style=&quot;font-size: 20px;&quot;&gt;A&lt;sub&gt;3&lt;/sub&gt;&lt;/span&gt;&lt;span style=&quot;font-size: 20px;&quot;&gt;B&lt;/span&gt;&lt;span style=&quot;font-size: 16.6667px;&quot;&gt;&lt;sub&gt;1&lt;/sub&gt;&lt;/span&gt;&lt;/font&gt;" style="text;html=1;align=center;verticalAlign=middle;resizable=0;points=[];autosize=1;strokeColor=none;fillColor=none;" vertex="1" parent="1">
          <mxGeometry x="140" y="300" width="110" height="40" as="geometry" />
        </mxCell>
        <mxCell id="UQc12cLVhQ0fAhJ0bAbh-28" value="&lt;font style=&quot;font-size: 20px;&quot; face=&quot;Times New Roman&quot;&gt;A&lt;sub&gt;1&lt;/sub&gt;A&lt;sub&gt;2&lt;/sub&gt;&lt;/font&gt;&lt;font style=&quot;&quot; face=&quot;Times New Roman&quot;&gt;&lt;span style=&quot;font-size: 20px;&quot;&gt;A&lt;sub&gt;3&lt;/sub&gt;&lt;/span&gt;&lt;/font&gt;" style="text;html=1;align=center;verticalAlign=middle;resizable=0;points=[];autosize=1;strokeColor=none;fillColor=none;" vertex="1" parent="1">
          <mxGeometry x="30" y="220" width="90" height="40" as="geometry" />
        </mxCell>
        <mxCell id="UQc12cLVhQ0fAhJ0bAbh-63" value="" style="endArrow=none;html=1;rounded=0;curved=1;exitX=0.975;exitY=0.525;exitDx=0;exitDy=0;exitPerimeter=0;strokeWidth=2;" edge="1" parent="1">
          <mxGeometry width="50" height="50" relative="1" as="geometry">
            <mxPoint x="403.5" y="91" as="sourcePoint" />
            <mxPoint x="450" y="60" as="targetPoint" />
          </mxGeometry>
        </mxCell>
        <mxCell id="UQc12cLVhQ0fAhJ0bAbh-64" value="" style="endArrow=none;html=1;rounded=0;curved=1;exitX=0.975;exitY=0.525;exitDx=0;exitDy=0;exitPerimeter=0;strokeWidth=2;entryX=0.072;entryY=-0.225;entryDx=0;entryDy=0;entryPerimeter=0;" edge="1" parent="1">
          <mxGeometry width="50" height="50" relative="1" as="geometry">
            <mxPoint x="402.5" y="141" as="sourcePoint" />
            <mxPoint x="449.52" y="91" as="targetPoint" />
          </mxGeometry>
        </mxCell>
        <mxCell id="UQc12cLVhQ0fAhJ0bAbh-66" value="" style="endArrow=none;html=1;rounded=0;curved=1;strokeWidth=2;entryX=0.071;entryY=-0.022;entryDx=0;entryDy=0;entryPerimeter=0;exitX=0.962;exitY=0.55;exitDx=0;exitDy=0;exitPerimeter=0;" edge="1" parent="1" target="UQc12cLVhQ0fAhJ0bAbh-8">
          <mxGeometry width="50" height="50" relative="1" as="geometry">
            <mxPoint x="402.05999999999995" y="144" as="sourcePoint" />
            <mxPoint x="448.56000000000006" y="129" as="targetPoint" />
          </mxGeometry>
        </mxCell>
        <mxCell id="UQc12cLVhQ0fAhJ0bAbh-67" value="" style="endArrow=none;html=1;rounded=0;curved=1;exitX=0.975;exitY=0.525;exitDx=0;exitDy=0;exitPerimeter=0;strokeWidth=2;entryX=0.053;entryY=-0.112;entryDx=0;entryDy=0;entryPerimeter=0;" edge="1" parent="1" target="UQc12cLVhQ0fAhJ0bAbh-9">
          <mxGeometry width="50" height="50" relative="1" as="geometry">
            <mxPoint x="403" y="191" as="sourcePoint" />
            <mxPoint x="450.02" y="141" as="targetPoint" />
          </mxGeometry>
        </mxCell>
        <mxCell id="UQc12cLVhQ0fAhJ0bAbh-68" value="" style="endArrow=none;html=1;rounded=0;curved=1;exitX=0.975;exitY=0.525;exitDx=0;exitDy=0;exitPerimeter=0;strokeWidth=2;entryX=0.081;entryY=-0.112;entryDx=0;entryDy=0;entryPerimeter=0;" edge="1" parent="1">
          <mxGeometry width="50" height="50" relative="1" as="geometry">
            <mxPoint x="403" y="241" as="sourcePoint" />
            <mxPoint x="451.96000000000004" y="185.51999999999998" as="targetPoint" />
          </mxGeometry>
        </mxCell>
        <mxCell id="UQc12cLVhQ0fAhJ0bAbh-69" value="" style="endArrow=none;html=1;rounded=0;curved=1;exitX=0.975;exitY=0.525;exitDx=0;exitDy=0;exitPerimeter=0;strokeWidth=2;" edge="1" parent="1">
          <mxGeometry width="50" height="50" relative="1" as="geometry">
            <mxPoint x="404" y="294" as="sourcePoint" />
            <mxPoint x="450" y="250" as="targetPoint" />
          </mxGeometry>
        </mxCell>
        <mxCell id="UQc12cLVhQ0fAhJ0bAbh-70" value="" style="endArrow=none;html=1;rounded=0;curved=1;strokeWidth=2;exitX=0.962;exitY=0.55;exitDx=0;exitDy=0;exitPerimeter=0;" edge="1" parent="1">
          <mxGeometry width="50" height="50" relative="1" as="geometry">
            <mxPoint x="405" y="290" as="sourcePoint" />
            <mxPoint x="450" y="217" as="targetPoint" />
          </mxGeometry>
        </mxCell>
        <mxCell id="UQc12cLVhQ0fAhJ0bAbh-71" value="" style="endArrow=none;html=1;rounded=0;curved=1;exitX=0.975;exitY=0.525;exitDx=0;exitDy=0;exitPerimeter=0;strokeWidth=2;entryX=0.081;entryY=-0.112;entryDx=0;entryDy=0;entryPerimeter=0;" edge="1" parent="1">
          <mxGeometry width="50" height="50" relative="1" as="geometry">
            <mxPoint x="404" y="336.48" as="sourcePoint" />
            <mxPoint x="452.96000000000004" y="281" as="targetPoint" />
          </mxGeometry>
        </mxCell>
        <mxCell id="UQc12cLVhQ0fAhJ0bAbh-72" value="" style="endArrow=none;html=1;rounded=0;curved=1;exitX=0.975;exitY=0.525;exitDx=0;exitDy=0;exitPerimeter=0;strokeWidth=2;entryX=0.053;entryY=-0.112;entryDx=0;entryDy=0;entryPerimeter=0;" edge="1" parent="1">
          <mxGeometry width="50" height="50" relative="1" as="geometry">
            <mxPoint x="403" y="340" as="sourcePoint" />
            <mxPoint x="453" y="305" as="targetPoint" />
          </mxGeometry>
        </mxCell>
        <mxCell id="UQc12cLVhQ0fAhJ0bAbh-73" value="" style="endArrow=none;html=1;rounded=0;curved=1;exitX=0.975;exitY=0.525;exitDx=0;exitDy=0;exitPerimeter=0;strokeWidth=2;entryX=0.075;entryY=-0.175;entryDx=0;entryDy=0;entryPerimeter=0;" edge="1" parent="1">
          <mxGeometry width="50" height="50" relative="1" as="geometry">
            <mxPoint x="404" y="341" as="sourcePoint" />
            <mxPoint x="452" y="331" as="targetPoint" />
          </mxGeometry>
        </mxCell>
        <mxCell id="UQc12cLVhQ0fAhJ0bAbh-76" value="" style="endArrow=none;html=1;rounded=0;curved=1;exitX=0.975;exitY=0.525;exitDx=0;exitDy=0;exitPerimeter=0;strokeWidth=2;" edge="1" parent="1">
          <mxGeometry width="50" height="50" relative="1" as="geometry">
            <mxPoint x="403" y="391" as="sourcePoint" />
            <mxPoint x="451" y="391" as="targetPoint" />
          </mxGeometry>
        </mxCell>
        <mxCell id="UQc12cLVhQ0fAhJ0bAbh-78" value="" style="endArrow=none;html=1;rounded=0;curved=1;exitX=0.975;exitY=0.525;exitDx=0;exitDy=0;exitPerimeter=0;strokeWidth=2;entryX=0.063;entryY=-0.175;entryDx=0;entryDy=0;entryPerimeter=0;" edge="1" parent="1">
          <mxGeometry width="50" height="50" relative="1" as="geometry">
            <mxPoint x="403" y="389" as="sourcePoint" />
            <mxPoint x="450.0799999999999" y="361" as="targetPoint" />
          </mxGeometry>
        </mxCell>
        <mxCell id="UQc12cLVhQ0fAhJ0bAbh-79" value="" style="endArrow=none;html=1;rounded=0;curved=1;strokeWidth=2;entryX=0.028;entryY=0.563;entryDx=0;entryDy=0;entryPerimeter=0;" edge="1" parent="1">
          <mxGeometry width="50" height="50" relative="1" as="geometry">
            <mxPoint x="404" y="393" as="sourcePoint" />
            <mxPoint x="448.48" y="425.52" as="targetPoint" />
          </mxGeometry>
        </mxCell>
        <mxCell id="UQc12cLVhQ0fAhJ0bAbh-80" value="" style="endArrow=none;html=1;rounded=0;curved=1;strokeWidth=2;entryX=0.032;entryY=0.488;entryDx=0;entryDy=0;entryPerimeter=0;" edge="1" parent="1">
          <mxGeometry width="50" height="50" relative="1" as="geometry">
            <mxPoint x="246" y="160" as="sourcePoint" />
            <mxPoint x="284.48" y="90.51999999999998" as="targetPoint" />
          </mxGeometry>
        </mxCell>
        <mxCell id="UQc12cLVhQ0fAhJ0bAbh-81" value="" style="endArrow=none;html=1;rounded=0;curved=1;strokeWidth=2;" edge="1" parent="1">
          <mxGeometry width="50" height="50" relative="1" as="geometry">
            <mxPoint x="246" y="165" as="sourcePoint" />
            <mxPoint x="286" y="145" as="targetPoint" />
          </mxGeometry>
        </mxCell>
        <mxCell id="UQc12cLVhQ0fAhJ0bAbh-83" value="" style="endArrow=none;html=1;rounded=0;curved=1;strokeWidth=2;entryX=0.042;entryY=0.625;entryDx=0;entryDy=0;entryPerimeter=0;exitX=0.986;exitY=0.688;exitDx=0;exitDy=0;exitPerimeter=0;" edge="1" parent="1">
          <mxGeometry width="50" height="50" relative="1" as="geometry">
            <mxPoint x="241.44000000000003" y="245" as="sourcePoint" />
            <mxPoint x="284.46000000000004" y="290" as="targetPoint" />
          </mxGeometry>
        </mxCell>
        <mxCell id="UQc12cLVhQ0fAhJ0bAbh-84" value="" style="endArrow=none;html=1;rounded=0;curved=1;strokeWidth=2;entryX=0.027;entryY=0.525;entryDx=0;entryDy=0;entryPerimeter=0;" edge="1" parent="1">
          <mxGeometry width="50" height="50" relative="1" as="geometry">
            <mxPoint x="241" y="240" as="sourcePoint" />
            <mxPoint x="283.51000000000005" y="191" as="targetPoint" />
          </mxGeometry>
        </mxCell>
        <mxCell id="UQc12cLVhQ0fAhJ0bAbh-85" value="" style="endArrow=none;html=1;rounded=0;curved=1;strokeWidth=2;" edge="1" parent="1">
          <mxGeometry width="50" height="50" relative="1" as="geometry">
            <mxPoint x="242" y="241.92" as="sourcePoint" />
            <mxPoint x="282" y="241.92" as="targetPoint" />
          </mxGeometry>
        </mxCell>
        <mxCell id="UQc12cLVhQ0fAhJ0bAbh-86" value="" style="endArrow=none;html=1;rounded=0;curved=1;strokeWidth=2;" edge="1" parent="1">
          <mxGeometry width="50" height="50" relative="1" as="geometry">
            <mxPoint x="110" y="240.5" as="sourcePoint" />
            <mxPoint x="150" y="240.5" as="targetPoint" />
          </mxGeometry>
        </mxCell>
        <mxCell id="UQc12cLVhQ0fAhJ0bAbh-87" value="" style="endArrow=none;html=1;rounded=0;curved=1;strokeWidth=2;exitX=0.909;exitY=0.75;exitDx=0;exitDy=0;exitPerimeter=0;" edge="1" parent="1">
          <mxGeometry width="50" height="50" relative="1" as="geometry">
            <mxPoint x="242.99" y="327" as="sourcePoint" />
            <mxPoint x="283" y="387" as="targetPoint" />
          </mxGeometry>
        </mxCell>
        <mxCell id="UQc12cLVhQ0fAhJ0bAbh-88" value="" style="endArrow=none;html=1;rounded=0;curved=1;strokeWidth=2;exitX=0.909;exitY=0.75;exitDx=0;exitDy=0;exitPerimeter=0;" edge="1" parent="1">
          <mxGeometry width="50" height="50" relative="1" as="geometry">
            <mxPoint x="244.99" y="324" as="sourcePoint" />
            <mxPoint x="286" y="344" as="targetPoint" />
          </mxGeometry>
        </mxCell>
        <mxCell id="UQc12cLVhQ0fAhJ0bAbh-89" value="" style="endArrow=none;html=1;rounded=0;curved=1;strokeWidth=2;exitX=0.909;exitY=0.75;exitDx=0;exitDy=0;exitPerimeter=0;entryX=0.091;entryY=0.5;entryDx=0;entryDy=0;entryPerimeter=0;" edge="1" parent="1" target="UQc12cLVhQ0fAhJ0bAbh-27">
          <mxGeometry width="50" height="50" relative="1" as="geometry">
            <mxPoint x="110" y="250" as="sourcePoint" />
            <mxPoint x="150.01" y="310" as="targetPoint" />
          </mxGeometry>
        </mxCell>
        <mxCell id="UQc12cLVhQ0fAhJ0bAbh-90" value="" style="endArrow=none;html=1;rounded=0;curved=1;strokeWidth=2;" edge="1" parent="1">
          <mxGeometry width="50" height="50" relative="1" as="geometry">
            <mxPoint x="110" y="230" as="sourcePoint" />
            <mxPoint x="150" y="160" as="targetPoint" />
          </mxGeometry>
        </mxCell>
        <mxCell id="UQc12cLVhQ0fAhJ0bAbh-91" value="" style="endArrow=classic;html=1;rounded=0;curved=1;strokeWidth=2;endSize=3;" edge="1" parent="1">
          <mxGeometry width="50" height="50" relative="1" as="geometry">
            <mxPoint x="63" y="211" as="sourcePoint" />
            <mxPoint x="63" y="231" as="targetPoint" />
          </mxGeometry>
        </mxCell>
        <mxCell id="UQc12cLVhQ0fAhJ0bAbh-92" value="" style="endArrow=classic;html=1;rounded=0;curved=1;strokeWidth=2;endSize=3;" edge="1" parent="1">
          <mxGeometry width="50" height="50" relative="1" as="geometry">
            <mxPoint x="84" y="211" as="sourcePoint" />
            <mxPoint x="84" y="231" as="targetPoint" />
          </mxGeometry>
        </mxCell>
        <mxCell id="UQc12cLVhQ0fAhJ0bAbh-93" value="" style="endArrow=classic;html=1;rounded=0;curved=1;strokeWidth=2;endSize=3;" edge="1" parent="1">
          <mxGeometry width="50" height="50" relative="1" as="geometry">
            <mxPoint x="106" y="211" as="sourcePoint" />
            <mxPoint x="106" y="231" as="targetPoint" />
          </mxGeometry>
        </mxCell>
        <mxCell id="UQc12cLVhQ0fAhJ0bAbh-94" value="" style="endArrow=classic;html=1;rounded=0;curved=1;strokeWidth=2;endSize=3;" edge="1" parent="1">
          <mxGeometry width="50" height="50" relative="1" as="geometry">
            <mxPoint x="215" y="130" as="sourcePoint" />
            <mxPoint x="215" y="150" as="targetPoint" />
          </mxGeometry>
        </mxCell>
        <mxCell id="UQc12cLVhQ0fAhJ0bAbh-95" value="" style="endArrow=classic;html=1;rounded=0;curved=1;strokeWidth=2;endSize=3;" edge="1" parent="1">
          <mxGeometry width="50" height="50" relative="1" as="geometry">
            <mxPoint x="240" y="130" as="sourcePoint" />
            <mxPoint x="240" y="150" as="targetPoint" />
          </mxGeometry>
        </mxCell>
        <mxCell id="UQc12cLVhQ0fAhJ0bAbh-96" value="" style="endArrow=classic;html=1;rounded=0;curved=1;strokeWidth=2;endSize=3;" edge="1" parent="1">
          <mxGeometry width="50" height="50" relative="1" as="geometry">
            <mxPoint x="194.92000000000002" y="210" as="sourcePoint" />
            <mxPoint x="194.92000000000002" y="230" as="targetPoint" />
          </mxGeometry>
        </mxCell>
        <mxCell id="UQc12cLVhQ0fAhJ0bAbh-98" value="" style="endArrow=classic;html=1;rounded=0;curved=1;strokeWidth=2;endSize=3;" edge="1" parent="1">
          <mxGeometry width="50" height="50" relative="1" as="geometry">
            <mxPoint x="219.00000000000003" y="210" as="sourcePoint" />
            <mxPoint x="219.00000000000003" y="230" as="targetPoint" />
          </mxGeometry>
        </mxCell>
        <mxCell id="UQc12cLVhQ0fAhJ0bAbh-99" value="" style="endArrow=classic;html=1;rounded=0;curved=1;strokeWidth=2;endSize=3;" edge="1" parent="1">
          <mxGeometry width="50" height="50" relative="1" as="geometry">
            <mxPoint x="241" y="210" as="sourcePoint" />
            <mxPoint x="241" y="230" as="targetPoint" />
          </mxGeometry>
        </mxCell>
        <mxCell id="UQc12cLVhQ0fAhJ0bAbh-100" value="" style="endArrow=classic;html=1;rounded=0;curved=1;strokeWidth=2;endSize=3;" edge="1" parent="1">
          <mxGeometry width="50" height="50" relative="1" as="geometry">
            <mxPoint x="215" y="290" as="sourcePoint" />
            <mxPoint x="215" y="310" as="targetPoint" />
          </mxGeometry>
        </mxCell>
        <mxCell id="UQc12cLVhQ0fAhJ0bAbh-101" value="" style="endArrow=classic;html=1;rounded=0;curved=1;strokeWidth=2;endSize=3;" edge="1" parent="1">
          <mxGeometry width="50" height="50" relative="1" as="geometry">
            <mxPoint x="240" y="290" as="sourcePoint" />
            <mxPoint x="240" y="310" as="targetPoint" />
          </mxGeometry>
        </mxCell>
        <mxCell id="UQc12cLVhQ0fAhJ0bAbh-102" value="" style="endArrow=classic;html=1;rounded=0;curved=1;strokeWidth=2;endSize=3;" edge="1" parent="1">
          <mxGeometry width="50" height="50" relative="1" as="geometry">
            <mxPoint x="400" y="60" as="sourcePoint" />
            <mxPoint x="400" y="80" as="targetPoint" />
          </mxGeometry>
        </mxCell>
        <mxCell id="UQc12cLVhQ0fAhJ0bAbh-103" value="" style="endArrow=classic;html=1;rounded=0;curved=1;strokeWidth=2;endSize=3;" edge="1" parent="1">
          <mxGeometry width="50" height="50" relative="1" as="geometry">
            <mxPoint x="375" y="111" as="sourcePoint" />
            <mxPoint x="375" y="131" as="targetPoint" />
          </mxGeometry>
        </mxCell>
        <mxCell id="UQc12cLVhQ0fAhJ0bAbh-104" value="" style="endArrow=classic;html=1;rounded=0;curved=1;strokeWidth=2;endSize=3;" edge="1" parent="1">
          <mxGeometry width="50" height="50" relative="1" as="geometry">
            <mxPoint x="400" y="111" as="sourcePoint" />
            <mxPoint x="400" y="131" as="targetPoint" />
          </mxGeometry>
        </mxCell>
        <mxCell id="UQc12cLVhQ0fAhJ0bAbh-105" value="" style="endArrow=classic;html=1;rounded=0;curved=1;strokeWidth=2;endSize=3;" edge="1" parent="1">
          <mxGeometry width="50" height="50" relative="1" as="geometry">
            <mxPoint x="400" y="161" as="sourcePoint" />
            <mxPoint x="400" y="181" as="targetPoint" />
          </mxGeometry>
        </mxCell>
        <mxCell id="UQc12cLVhQ0fAhJ0bAbh-106" value="" style="endArrow=classic;html=1;rounded=0;curved=1;strokeWidth=2;endSize=3;" edge="1" parent="1">
          <mxGeometry width="50" height="50" relative="1" as="geometry">
            <mxPoint x="400" y="210" as="sourcePoint" />
            <mxPoint x="400" y="230" as="targetPoint" />
          </mxGeometry>
        </mxCell>
        <mxCell id="UQc12cLVhQ0fAhJ0bAbh-108" value="" style="endArrow=classic;html=1;rounded=0;curved=1;strokeWidth=2;endSize=3;" edge="1" parent="1">
          <mxGeometry width="50" height="50" relative="1" as="geometry">
            <mxPoint x="375" y="261" as="sourcePoint" />
            <mxPoint x="375" y="281" as="targetPoint" />
          </mxGeometry>
        </mxCell>
        <mxCell id="UQc12cLVhQ0fAhJ0bAbh-109" value="" style="endArrow=classic;html=1;rounded=0;curved=1;strokeWidth=2;endSize=3;" edge="1" parent="1">
          <mxGeometry width="50" height="50" relative="1" as="geometry">
            <mxPoint x="400" y="261" as="sourcePoint" />
            <mxPoint x="400" y="281" as="targetPoint" />
          </mxGeometry>
        </mxCell>
        <mxCell id="UQc12cLVhQ0fAhJ0bAbh-116" value="" style="endArrow=classic;html=1;rounded=0;curved=1;strokeWidth=2;endSize=3;" edge="1" parent="1">
          <mxGeometry width="50" height="50" relative="1" as="geometry">
            <mxPoint x="353" y="312" as="sourcePoint" />
            <mxPoint x="353" y="332" as="targetPoint" />
          </mxGeometry>
        </mxCell>
        <mxCell id="UQc12cLVhQ0fAhJ0bAbh-117" value="" style="endArrow=classic;html=1;rounded=0;curved=1;strokeWidth=2;endSize=3;" edge="1" parent="1">
          <mxGeometry width="50" height="50" relative="1" as="geometry">
            <mxPoint x="377.08000000000004" y="312" as="sourcePoint" />
            <mxPoint x="377.08000000000004" y="332" as="targetPoint" />
          </mxGeometry>
        </mxCell>
        <mxCell id="UQc12cLVhQ0fAhJ0bAbh-118" value="" style="endArrow=classic;html=1;rounded=0;curved=1;strokeWidth=2;endSize=3;" edge="1" parent="1">
          <mxGeometry width="50" height="50" relative="1" as="geometry">
            <mxPoint x="399.08" y="312" as="sourcePoint" />
            <mxPoint x="399.08" y="332" as="targetPoint" />
          </mxGeometry>
        </mxCell>
        <mxCell id="UQc12cLVhQ0fAhJ0bAbh-119" value="" style="endArrow=classic;html=1;rounded=0;curved=1;strokeWidth=2;endSize=3;" edge="1" parent="1">
          <mxGeometry width="50" height="50" relative="1" as="geometry">
            <mxPoint x="353.92" y="363" as="sourcePoint" />
            <mxPoint x="353.92" y="383" as="targetPoint" />
          </mxGeometry>
        </mxCell>
        <mxCell id="UQc12cLVhQ0fAhJ0bAbh-120" value="" style="endArrow=classic;html=1;rounded=0;curved=1;strokeWidth=2;endSize=3;" edge="1" parent="1">
          <mxGeometry width="50" height="50" relative="1" as="geometry">
            <mxPoint x="378" y="363" as="sourcePoint" />
            <mxPoint x="378" y="383" as="targetPoint" />
          </mxGeometry>
        </mxCell>
        <mxCell id="UQc12cLVhQ0fAhJ0bAbh-121" value="" style="endArrow=classic;html=1;rounded=0;curved=1;strokeWidth=2;endSize=3;" edge="1" parent="1">
          <mxGeometry width="50" height="50" relative="1" as="geometry">
            <mxPoint x="400" y="363" as="sourcePoint" />
            <mxPoint x="400" y="383" as="targetPoint" />
          </mxGeometry>
        </mxCell>
      </root>
    </mxGraphModel>
  </diagram>
</mxfile>
